<?xml version='1.0' encoding='iso-8859-1'?>
<svg fill="#FFFFFF" viewBox="0 0 498 498" xmlns="http://www.w3.org/2000/svg" width="498" height="498">
      <g transform="translate(0, -2)">
        <path d="M249.68 135.69c.51 0 1.02 0 1.55.01 8.19.03 15.98.56 23.94 2.49.54.13 1.1.26 1.65.39 20.61 4.82 38.18 15.41 53.48 29.86.76.7.76.7 1.54 1.43 19.85 18.95 30 45.84 32.44 72.66H396v15.88h-32.47v6.05c-3.01 29.65-19.39 56.3-41.67 75.44-23.61 19.01-54.08 27.6-84.09 24.53-24.1-2.76-46.76-12.19-64.55-28.9l-1.38-1.29c-19.33-18.16-32.64-42.41-35.62-69.03v-6.8h-30.21v-15.88h30.21v-7.56c.34-2.43.72-4.78 1.22-7.18.14-.65.27-1.3.42-1.97 6.29-29.04 23.92-55.57 48.96-71.75 19.13-12.13 40.2-18.48 62.87-18.38zm-25.87 19.14c-.76.21-.76.21-1.53.42-15.62 4.36-28.77 13.08-40.76 23.78-.55.49-1.1.98-1.67 1.48-17.67 16.61-27.84 42.14-28.68 66.11-.52 24.48 7.29 48.54 23.55 66.99.55.65 1.1 1.29 1.68 1.96 16.09 18.43 38.28 29.82 62.52 32.82 12.56.83 24.86.36 37.01-3.02.76-.2.76-.2 1.53-.42 24.3-6.78 45.52-23.92 58.08-45.67 12.91-23.26 16.86-49.91 9.56-75.72-7.57-25.15-24.25-47.17-47.47-59.82-7.96-4.14-16.04-7.4-24.72-9.65l-2.67-.73c-15.03-3.49-31.62-2.64-46.42 1.48z"></path>
        <path d="M364 242.5H498V258.5H364z"></path>
        <path d="M0 242.5H138V258.5H0z"></path>
        <path d="M221 205H333V222H221z" transform="rotate(45 277 213.5)"></path>
        <path
          d="M221.36 280.45H333.36V297.45H221.36z"
          transform="rotate(-45 271 284)"
        ></path>
        <path
          d="M191.12 238.76H303.12V255.76H191.12z"
          transform="rotate(45 277 213.5)"
        ></path>
        <path
          d="M187.6 250.57H299.6V267.57H187.6z"
          transform="rotate(-45 271 284)"
        ></path>
      </g>
</svg>