<?xml version='1.0' encoding='iso-8859-1'?>
<svg fill="#FFFFFF" viewBox="0 0 498 498" xmlns="http://www.w3.org/2000/svg" width="498" height="498">
      <g transform="translate(0, -22)">
        <path d="M209.14 235.66c1.86 1.59 3.63 3.27 5.37 5 .46.44.46.44.93.9.61.6 1.19 1.23 1.75 1.88v1.11h1.07c.13-.31.26-.62.39-.94 3.79-7.05 12.27-11.65 19.45-14.03 11.25-3.27 22.17-2.03 32.6 3.49 3.53 2.06 6.42 4.7 9.33 7.59.31.29.62.59.93.9.61.6 1.19 1.23 1.75 1.88v1.11h1.07c.19-.47.19-.47.39-.94 3.79-7.05 12.27-11.65 19.45-14.03 11.25-3.27 22.17-2.03 32.6 3.49 9.81 5.71 16.33 14.94 19.62 25.9.46 1.69.46 1.69.46 2.81h31.69v17.23h-47.27c-.35-4.58-.71-9.17-1.07-13.89-2.15-7.62-5.83-12.65-12.37-16.81-5.61-3.14-11.95-3.52-18.04-1.73-6.82 2.41-11.42 6.26-14.9 12.81-1.81 4.09-1.81 4.09-2.49 11.29h-17.19c-.35-2.57-.71-5.13-1.07-7.78-2.97-7.39-6.98-12.28-14.09-15.56-6.53-2.66-12.77-2.13-19.21.56-6.54 3.15-10.17 8.22-12.89 15-.35 2.57-.71 5.13-1.07 7.78h-17.19l-1.07-7.78c-2.97-7.39-6.98-12.28-14.09-15.56-6.53-2.66-12.77-2.13-19.21.56-6.34 3.06-10.49 8.24-12.89 15-1.18 5.27-1.26 10.73-1.61 16.11H113v-17.23h31.69c.79-3.3.79-3.3 1.61-6.67 1.93-5.02 4.55-9.34 8.06-13.34.37-.43.73-.86 1.1-1.29 13.8-15.33 37.48-16.71 53.68-4.82z"></path>
        <path d="M376 261.8H512V279H376z"></path>
        <path d="M0.5 261.8H140.5V279H0.5z"></path>
      </g>
</svg>