<?xml version='1.0' encoding='iso-8859-1'?>
<svg fill="#FFFFFF" viewBox="0 0 498 498" xmlns="http://www.w3.org/2000/svg" width="498" height="498">
      <g transform="translate(0, -2)">
        <path d="M249.68 135.69c.51 0 1.02 0 1.55.01 8.19.03 15.98.56 23.94 2.49.54.13 1.1.26 1.65.39 20.61 4.82 38.18 15.41 53.48 29.86.76.7.76.7 1.54 1.43 19.85 18.95 30 45.84 32.44 72.66H396v15.88h-32.47v6.05c-3.01 29.65-19.39 56.3-41.67 75.44-23.61 19.01-54.08 27.6-84.09 24.53-24.1-2.76-46.76-12.19-64.55-28.9l-1.38-1.29c-19.33-18.16-32.64-42.41-35.62-69.03v-6.8h-30.21v-15.88h30.21v-7.56c.34-2.43.72-4.78 1.22-7.18.14-.65.27-1.3.42-1.97 6.29-29.04 23.92-55.57 48.96-71.75 19.13-12.13 40.2-18.48 62.87-18.38zm-25.87 19.14c-.76.21-.76.21-1.53.42-15.62 4.36-28.77 13.08-40.76 23.78-.55.49-1.1.98-1.67 1.48-17.67 16.61-27.84 42.14-28.68 66.11-.52 24.48 7.29 48.54 23.55 66.99.55.65 1.1 1.29 1.68 1.96 16.09 18.43 38.28 29.82 62.52 32.82 12.56.83 24.86.36 37.01-3.02.76-.2.76-.2 1.53-.42 24.3-6.78 45.52-23.92 58.08-45.67 12.91-23.26 16.86-49.91 9.56-75.72-7.57-25.15-24.25-47.17-47.47-59.82-7.96-4.14-16.04-7.4-24.72-9.65l-2.67-.73c-15.03-3.49-31.62-2.64-46.42 1.48z"></path>
        <path d="M299.25 228c3.84 2.54 7.42 5.21 10.94 8.02.51.41 1.03.82 1.56 1.24 1.62 1.28 3.24 2.57 4.86 3.87 1.1.88 2.21 1.76 3.31 2.63 2.69 2.15 5.39 4.29 8.08 6.44-3.01 3.35-6.25 6.32-9.95 9.2-.5.4-.99.79-1.51 1.19-1.57 1.24-3.14 2.47-4.71 3.7-1.07.85-2.15 1.69-3.22 2.54-2.61 2.06-5.23 4.11-7.84 6.16-3.07-1.13-5.31-2.75-7.75-4.57-.42-.31-.84-.62-1.27-.94-1.03-.76-2.06-1.52-3.08-2.29 1.51-2.4 1.51-2.4 6.81-6.6H182.01v-12.6c38.44-.2 76.89-.4 116.5-.6-3.25-2.57-6.49-5.15-9.83-7.8 1.21-1.93 1.83-2.8 3.65-4.21.41-.31.81-.63 1.23-.96.42-.32.84-.64 1.27-.98.43-.33.85-.67 1.29-1.01 1.05-.82 2.1-1.63 3.15-2.44z"></path>
        <path d="M364 242.5H498V258.5H364z"></path>
        <path d="M0 242.5H138V258.5H0z"></path>
      </g>
</svg>