<?xml version='1.0' encoding='iso-8859-1'?>
<svg fill="#FFFFFF" xmlns="http://www.w3.org/2000/svg" width="498" height="498" viewBox="0 0 498 498">
      <g transform="translate(0, -2)">
          <path d="M498 242.25H364.9c-4-59.72-53.85-107.08-114.57-107.08s-110.56 47.36-114.56 107.08H0v16h135.8c4.24 59.48 53.99 106.58 114.53 106.58s110.29-47.1 114.54-106.58H498v-16zM349.17 250c0 54.5-44.34 98.83-98.84 98.83S151.5 304.5 151.5 250s44.34-98.83 98.83-98.83 98.84 44.33 98.84 98.83z"></path>
          <path d="M277.08599853515625 201.25L250.61099243164062 276.0769958496094 223.8570098876953 201.25 203.65200805664062 201.25 242.5290069580078 300.25 258.6929931640625 300.25 297.291015625 201.25z"></path>
      </g>
</svg>